<svg width="14" height="18" viewBox="0 0 14 18" fill="none" xmlns="http://www.w3.org/2000/svg">
<path fill-rule="evenodd" clip-rule="evenodd" d="M7.0002 17.5C6.29603 17.5 5.7252 16.9292 5.7252 16.225L5.7252 4.94054L2.39426 8.60871C1.9062 9.1163 1.09907 9.13212 0.591483 8.64406C0.0838996 8.156 0.068073 7.34887 0.556135 6.84129L6.08113 0.891286C6.32152 0.641287 6.65338 0.5 7.0002 0.5C7.34702 0.5 7.67887 0.641287 7.91926 0.891286L13.4443 6.84129C13.9323 7.34887 13.9165 8.156 13.4089 8.64406C12.9013 9.13212 12.0942 9.1163 11.6061 8.60871L8.2752 4.94054V16.225C8.2752 16.9292 7.70436 17.5 7.0002 17.5Z" fill="white"/>
</svg>
